<svg width="63.000000" height="68.000000" viewBox="0 0 63 68" fill="none" xmlns="http://www.w3.org/2000/svg" xmlns:xlink="http://www.w3.org/1999/xlink">
	<desc>
			Created with Pixso.
	</desc>
	<defs/>
	<path id="path7" d="M18.13 67.04C28.66 67.04 37.2 57.2 37.2 45.05C37.2 32.91 28.66 23.06 18.13 23.06C7.6 23.06 -0.94 32.91 -0.94 45.05C-0.94 57.2 7.6 67.04 18.13 67.04Z" fill="#04E061" fill-opacity="1.000000" fill-rule="nonzero"/>
	<path id="path8" d="M51.21 64.27C57.58 64.27 62.74 58.32 62.74 50.98C62.74 43.64 57.58 37.69 51.21 37.69C44.85 37.69 39.69 43.64 39.69 50.98C39.69 58.32 44.85 64.27 51.21 64.27Z" fill="#FF4053" fill-opacity="1.000000" fill-rule="nonzero"/>
	<path id="path9" d="M21.78 20.2C25.72 20.2 28.91 16.52 28.91 11.98C28.91 7.43 25.72 3.75 21.78 3.75C17.84 3.75 14.65 7.43 14.65 11.98C14.65 16.52 17.84 20.2 21.78 20.2Z" fill="#965EEB" fill-opacity="1.000000" fill-rule="nonzero"/>
	<path id="path10" d="M46.74 34.82C55.3 34.82 62.24 26.82 62.24 16.95C62.24 7.07 55.3 -0.93 46.74 -0.93C38.17 -0.93 31.23 7.07 31.23 16.95C31.23 26.82 38.17 34.82 46.74 34.82Z" fill="#00AAFF" fill-opacity="1.000000" fill-rule="nonzero"/>
</svg>
