<svg width="67.000000" height="67.000000" viewBox="0 0 67 67" fill="none" xmlns="http://www.w3.org/2000/svg" xmlns:xlink="http://www.w3.org/1999/xlink">
	<desc>
			Created with Pixso.
	</desc>
	<defs/>
	<path id="Layer" d="M50.63 -0.96C59.64 -0.96 66.95 4.18 66.95 10.52C66.95 11.14 66.88 11.76 66.74 12.38C66.6 12.99 66.39 13.59 66.11 14.18C65.83 14.77 65.48 15.34 65.06 15.89C64.65 16.44 64.17 16.96 63.64 17.46L50.63 28.64L38.71 18.52L37.62 17.46C37.09 16.97 36.61 16.44 36.2 15.89C35.78 15.34 35.43 14.77 35.15 14.18C34.87 13.59 34.66 12.99 34.52 12.38C34.37 11.77 34.3 11.15 34.31 10.52C34.31 4.18 41.61 -0.96 50.63 -0.96L50.63 -0.96ZM50.63 15.77C50.63 15.77 50.63 15.77 50.63 15.77C50.63 15.77 50.63 15.77 50.63 15.77L50.63 15.77ZM43.15 10.5C43.15 7.59 46.5 5.23 50.63 5.23C54.76 5.23 58.11 7.59 58.11 10.5C58.11 13.41 54.76 15.77 50.63 15.77C46.5 15.77 43.15 13.41 43.15 10.5ZM56.86 33.13L44.77 33.13L44.77 42.19L32.69 31.97L-0.96 60.42L10.23 66.97L32.69 47.99L55.14 66.97L66.33 60.42L56.86 52.41L56.86 33.13Z" fill="#0468FF" fill-opacity="1.000000" fill-rule="evenodd"/>
</svg>
