<svg width="68.000000" height="68.000000" viewBox="0 0 68 68" fill="none" xmlns="http://www.w3.org/2000/svg" xmlns:xlink="http://www.w3.org/1999/xlink">
	<desc>
			Created with Pixso.
	</desc>
	<defs/>
	<path id="Vector" d="M34 0C15.22 0 0 15.22 0 34C0 52.77 15.22 68 34 68C52.77 68 68 52.77 68 34C68 15.22 52.77 0 34 0Z" fill="#40B3E0" fill-opacity="1.000000" fill-rule="nonzero"/>
	<path id="Vector" d="M50.54 19.55L44.47 50.17C44.47 50.17 43.62 52.29 41.28 51.28L27.27 40.53L22.17 38.07L13.59 35.18C13.59 35.18 12.28 34.71 12.15 33.69C12.02 32.68 13.64 32.12 13.64 32.12L47.74 18.75C47.74 18.75 50.54 17.52 50.54 19.55Z" fill="#FFFFFF" fill-opacity="1.000000" fill-rule="nonzero"/>
	<path id="Vector" d="M26.19 49.83C26.19 49.83 25.78 49.79 25.27 48.17C24.76 46.56 22.17 38.07 22.17 38.07L42.77 24.99C42.77 24.99 43.96 24.27 43.91 24.99C43.91 24.99 44.13 25.12 43.49 25.71C42.85 26.31 27.31 40.28 27.31 40.28L26.19 49.83Z" fill="#D2E5F1" fill-opacity="1.000000" fill-rule="nonzero"/>
	<path id="Vector" d="M32.64 44.65L27.1 49.7C27.1 49.7 26.66 50.03 26.19 49.83L27.25 40.44L32.64 44.65Z" fill="#B5CFE4" fill-opacity="1.000000" fill-rule="nonzero"/>
</svg>
