<svg width="69.000000" height="69.000000" viewBox="0 0 69 69" fill="none" xmlns="http://www.w3.org/2000/svg" xmlns:xlink="http://www.w3.org/1999/xlink">
	<desc>
			Created with Pixso.
	</desc>
	<defs>
		<clipPath id="clip406_120">
			<rect id="wa 1" width="68.000000" height="68.000000" transform="matrix(-0.00541569 -0.999985 -0.999985 0.00541569 68.3672 67.999)" fill="white" fill-opacity="0"/>
		</clipPath>
		<linearGradient id="paint_linear_406_122_0" x1="53.187462" y1="11.767662" x2="8.822044" y2="59.821129" gradientUnits="userSpaceOnUse">
			<stop stop-color="#5BD066"/>
			<stop offset="1.000000" stop-color="#27B43E"/>
		</linearGradient>
	</defs>
	<rect id="wa 1" width="68.000000" height="68.000000" transform="matrix(-0.00541569 -0.999985 -0.999985 0.00541569 68.3672 67.999)" fill="#FFFFFF" fill-opacity="0"/>
	<g clip-path="url(#clip406_120)">
		<path id="Vector" d="M2.3 34.35C2.21 17.92 15.46 4.53 31.89 4.44C48.32 4.35 61.71 17.6 61.8 34.03C61.89 50.46 48.64 63.85 32.21 63.94C26.88 63.97 21.86 62.59 17.52 60.16L2.47 64.1L5.99 48.54C3.66 44.33 2.33 39.5 2.3 34.35ZM6.88 34.33C6.81 20.42 18.01 9.09 31.92 9.02C45.82 8.94 57.15 20.15 57.23 34.05C57.3 47.96 46.09 59.29 32.19 59.36C26.82 59.39 21.84 57.74 17.74 54.9L9.29 57.2L11.4 48.58C8.58 44.54 6.91 39.63 6.88 34.33Z" fill="#BFC8D0" fill-opacity="1.000000" fill-rule="evenodd"/>
		<path id="Vector" d="M34.04 8.68C19.96 8.76 8.6 20.23 8.68 34.32C8.71 39.69 10.4 44.66 13.25 48.76L11.12 57.49L19.68 55.16C23.83 58.03 28.88 59.71 34.32 59.68C48.4 59.6 59.75 48.12 59.68 34.04C59.6 19.96 48.12 8.6 34.04 8.68Z" fill="url(#paint_linear_406_122_0)" fill-opacity="1.000000" fill-rule="nonzero"/>
		<path id="Vector" d="M4.43 34.34C4.34 17.91 17.59 4.52 34.02 4.43C50.45 4.34 63.84 17.59 63.93 34.02C64.02 50.45 50.77 63.84 34.34 63.93C29 63.96 23.99 62.58 19.65 60.14L4.59 64.09L8.11 48.53C5.79 44.32 4.46 39.48 4.43 34.34ZM9.01 34.31C8.93 20.41 20.14 9.08 34.04 9.01C47.94 8.93 59.28 20.14 59.35 34.04C59.43 47.94 48.22 59.28 34.31 59.35C28.95 59.38 23.96 57.73 19.86 54.89L11.42 57.19L13.52 48.57C10.7 44.53 9.03 39.62 9.01 34.31Z" fill="#FFFFFF" fill-opacity="1.000000" fill-rule="evenodd"/>
		<path id="Vector" d="M48.03 41.54C49.46 42.24 49.34 43.33 49.34 44.42C49.35 46.38 47.02 49.45 42.66 49.47C39.08 49.49 35.15 47.94 29.26 42.65C23.58 37.56 20.61 30.83 20.68 25.24C20.75 19.64 25.56 18.46 27.19 18.46C27.91 18.45 28.27 18.9 28.37 19.2C29.29 21.11 31.02 24.61 31.34 25.41C31.67 26.21 31.24 26.63 31 26.89C30.31 27.62 28.28 29.07 27.83 29.56C27.37 30.06 27.61 30.79 27.78 31.1C28.24 32.22 29.61 35.26 31.98 37.68C34.91 40.67 35.91 40.84 36.81 41.4C37.53 41.85 37.96 41.51 38.15 41.35C38.9 40.69 40.04 39.79 40.62 39.39C41.19 38.99 42.06 39.3 42.6 39.49C44.94 40.3 46.89 40.98 48.03 41.54Z" fill="#FFFFFF" fill-opacity="1.000000" fill-rule="nonzero"/>
	</g>
</svg>
